G04 #@! TF.FileFunction,Copper,L1,Top,Signal*
%FSLAX46Y46*%
G04 Gerber Fmt 4.6, Leading zero omitted, Abs format (unit mm)*
G04 Created by KiCad (PCBNEW 4.0.7) date 06/02/19 07:54:43*
%MOMM*%
%LPD*%
G01*
G04 APERTURE LIST*
%ADD10C,0.100000*%
%ADD11C,1.524000*%
%ADD12C,0.600000*%
%ADD13C,0.250000*%
G04 APERTURE END LIST*
D10*
D11*
X114300000Y-99060000D03*
X114300000Y-101600000D03*
X114300000Y-104140000D03*
X114300000Y-106680000D03*
X114300000Y-109220000D03*
X114300000Y-111760000D03*
X114300000Y-114300000D03*
X114300000Y-116840000D03*
X114300000Y-121920000D03*
X114300000Y-124460000D03*
X114300000Y-127000000D03*
X114300000Y-129540000D03*
X114300000Y-132080000D03*
X114300000Y-134620000D03*
X154940000Y-88900000D03*
X154940000Y-91440000D03*
X154940000Y-93980000D03*
X154940000Y-96520000D03*
X154940000Y-99060000D03*
X154940000Y-101600000D03*
X154940000Y-104140000D03*
X154940000Y-106680000D03*
X154940000Y-109220000D03*
X154940000Y-111760000D03*
X154940000Y-116840000D03*
X154940000Y-119380000D03*
X154940000Y-121920000D03*
X154940000Y-124460000D03*
X154940000Y-127000000D03*
X154940000Y-129540000D03*
X154940000Y-132080000D03*
X154940000Y-134620000D03*
X123190000Y-86360000D03*
X123190000Y-93980000D03*
X118110000Y-86360000D03*
X118110000Y-93980000D03*
X133350000Y-132080000D03*
X130810000Y-132080000D03*
X128270000Y-132080000D03*
X125730000Y-132080000D03*
X123190000Y-132080000D03*
X125730000Y-99060000D03*
X125730000Y-106680000D03*
X128270000Y-99060000D03*
X128270000Y-106680000D03*
X123190000Y-99060000D03*
X123190000Y-106680000D03*
X135890000Y-99060000D03*
X138430000Y-99060000D03*
X135890000Y-104140000D03*
X138430000Y-104140000D03*
X135890000Y-109220000D03*
X138430000Y-109220000D03*
X151130000Y-121920000D03*
X143510000Y-121920000D03*
X151130000Y-124460000D03*
X143510000Y-124460000D03*
X151130000Y-129540000D03*
X143510000Y-129540000D03*
D12*
X130810000Y-109220000D03*
X120650000Y-109220000D03*
X133350000Y-88900000D03*
X133350000Y-99060000D03*
X130810000Y-93980000D03*
X130810000Y-99060000D03*
D13*
X130810000Y-109220000D02*
X120650000Y-109220000D01*
X133350000Y-88900000D02*
X133350000Y-99060000D01*
X130810000Y-93980000D02*
X130810000Y-99060000D01*
M02*
