G04 #@! TF.FileFunction,Legend,Top*
%FSLAX46Y46*%
G04 Gerber Fmt 4.6, Leading zero omitted, Abs format (unit mm)*
G04 Created by KiCad (PCBNEW 4.0.7) date 10/02/18 19:48:28*
%MOMM*%
%LPD*%
G01*
G04 APERTURE LIST*
%ADD10C,0.100000*%
%ADD11C,0.200000*%
%ADD12C,0.150000*%
G04 APERTURE END LIST*
D10*
D11*
X184150000Y-72390000D02*
X143510000Y-72390000D01*
X184150000Y-118110000D02*
X184150000Y-72390000D01*
X143510000Y-118110000D02*
X184150000Y-118110000D01*
X143510000Y-72390000D02*
X143510000Y-118110000D01*
D12*
X167640000Y-83820000D02*
X165100000Y-83820000D01*
X165100000Y-83820000D02*
X165100000Y-88900000D01*
X165100000Y-88900000D02*
X167640000Y-88900000D01*
X167640000Y-88900000D02*
X167640000Y-83820000D01*
X165100000Y-83820000D02*
X167640000Y-83820000D01*
X167640000Y-83820000D02*
X167640000Y-78740000D01*
X167640000Y-78740000D02*
X165100000Y-78740000D01*
X165100000Y-78740000D02*
X165100000Y-83820000D01*
X182880000Y-85090000D02*
G75*
G03X182880000Y-85090000I-6350000J0D01*
G01*
X182880000Y-100330000D02*
G75*
G03X182880000Y-100330000I-6350000J0D01*
G01*
X149860000Y-81280000D02*
X149860000Y-88900000D01*
X149860000Y-88900000D02*
X147320000Y-88900000D01*
X147320000Y-88900000D02*
X147320000Y-81280000D01*
X149860000Y-81280000D02*
X147320000Y-81280000D01*
X162560000Y-83820000D02*
X152400000Y-83820000D01*
X162560000Y-83820000D02*
X162560000Y-81280000D01*
X162560000Y-81280000D02*
X152400000Y-81280000D01*
X152400000Y-81280000D02*
X152400000Y-83820000D01*
X162560000Y-86360000D02*
X152400000Y-86360000D01*
X162560000Y-86360000D02*
X162560000Y-83820000D01*
X162560000Y-83820000D02*
X152400000Y-83820000D01*
X152400000Y-83820000D02*
X152400000Y-86360000D01*
X152400000Y-101600000D02*
X142240000Y-101600000D01*
X142240000Y-101600000D02*
X142240000Y-109220000D01*
X142240000Y-109220000D02*
X152400000Y-109220000D01*
X152400000Y-109220000D02*
X152400000Y-101600000D01*
X164187143Y-86526666D02*
X164234762Y-86574285D01*
X164282381Y-86717142D01*
X164282381Y-86812380D01*
X164234762Y-86955238D01*
X164139524Y-87050476D01*
X164044286Y-87098095D01*
X163853810Y-87145714D01*
X163710952Y-87145714D01*
X163520476Y-87098095D01*
X163425238Y-87050476D01*
X163330000Y-86955238D01*
X163282381Y-86812380D01*
X163282381Y-86717142D01*
X163330000Y-86574285D01*
X163377619Y-86526666D01*
X164282381Y-85574285D02*
X164282381Y-86145714D01*
X164282381Y-85860000D02*
X163282381Y-85860000D01*
X163425238Y-85955238D01*
X163520476Y-86050476D01*
X163568095Y-86145714D01*
X169267143Y-81446666D02*
X169314762Y-81494285D01*
X169362381Y-81637142D01*
X169362381Y-81732380D01*
X169314762Y-81875238D01*
X169219524Y-81970476D01*
X169124286Y-82018095D01*
X168933810Y-82065714D01*
X168790952Y-82065714D01*
X168600476Y-82018095D01*
X168505238Y-81970476D01*
X168410000Y-81875238D01*
X168362381Y-81732380D01*
X168362381Y-81637142D01*
X168410000Y-81494285D01*
X168457619Y-81446666D01*
X168457619Y-81065714D02*
X168410000Y-81018095D01*
X168362381Y-80922857D01*
X168362381Y-80684761D01*
X168410000Y-80589523D01*
X168457619Y-80541904D01*
X168552857Y-80494285D01*
X168648095Y-80494285D01*
X168790952Y-80541904D01*
X169362381Y-81113333D01*
X169362381Y-80494285D01*
X180697143Y-85256666D02*
X180744762Y-85304285D01*
X180792381Y-85447142D01*
X180792381Y-85542380D01*
X180744762Y-85685238D01*
X180649524Y-85780476D01*
X180554286Y-85828095D01*
X180363810Y-85875714D01*
X180220952Y-85875714D01*
X180030476Y-85828095D01*
X179935238Y-85780476D01*
X179840000Y-85685238D01*
X179792381Y-85542380D01*
X179792381Y-85447142D01*
X179840000Y-85304285D01*
X179887619Y-85256666D01*
X179792381Y-84923333D02*
X179792381Y-84304285D01*
X180173333Y-84637619D01*
X180173333Y-84494761D01*
X180220952Y-84399523D01*
X180268571Y-84351904D01*
X180363810Y-84304285D01*
X180601905Y-84304285D01*
X180697143Y-84351904D01*
X180744762Y-84399523D01*
X180792381Y-84494761D01*
X180792381Y-84780476D01*
X180744762Y-84875714D01*
X180697143Y-84923333D01*
X180697143Y-100496666D02*
X180744762Y-100544285D01*
X180792381Y-100687142D01*
X180792381Y-100782380D01*
X180744762Y-100925238D01*
X180649524Y-101020476D01*
X180554286Y-101068095D01*
X180363810Y-101115714D01*
X180220952Y-101115714D01*
X180030476Y-101068095D01*
X179935238Y-101020476D01*
X179840000Y-100925238D01*
X179792381Y-100782380D01*
X179792381Y-100687142D01*
X179840000Y-100544285D01*
X179887619Y-100496666D01*
X180125714Y-99639523D02*
X180792381Y-99639523D01*
X179744762Y-99877619D02*
X180459048Y-100115714D01*
X180459048Y-99496666D01*
X145502381Y-84153333D02*
X146216667Y-84153333D01*
X146359524Y-84200953D01*
X146454762Y-84296191D01*
X146502381Y-84439048D01*
X146502381Y-84534286D01*
X146502381Y-83153333D02*
X146502381Y-83724762D01*
X146502381Y-83439048D02*
X145502381Y-83439048D01*
X145645238Y-83534286D01*
X145740476Y-83629524D01*
X145788095Y-83724762D01*
X157313334Y-85542381D02*
X156980000Y-85066190D01*
X156741905Y-85542381D02*
X156741905Y-84542381D01*
X157122858Y-84542381D01*
X157218096Y-84590000D01*
X157265715Y-84637619D01*
X157313334Y-84732857D01*
X157313334Y-84875714D01*
X157265715Y-84970952D01*
X157218096Y-85018571D01*
X157122858Y-85066190D01*
X156741905Y-85066190D01*
X158265715Y-85542381D02*
X157694286Y-85542381D01*
X157980000Y-85542381D02*
X157980000Y-84542381D01*
X157884762Y-84685238D01*
X157789524Y-84780476D01*
X157694286Y-84828095D01*
X157313334Y-88082381D02*
X156980000Y-87606190D01*
X156741905Y-88082381D02*
X156741905Y-87082381D01*
X157122858Y-87082381D01*
X157218096Y-87130000D01*
X157265715Y-87177619D01*
X157313334Y-87272857D01*
X157313334Y-87415714D01*
X157265715Y-87510952D01*
X157218096Y-87558571D01*
X157122858Y-87606190D01*
X156741905Y-87606190D01*
X157694286Y-87177619D02*
X157741905Y-87130000D01*
X157837143Y-87082381D01*
X158075239Y-87082381D01*
X158170477Y-87130000D01*
X158218096Y-87177619D01*
X158265715Y-87272857D01*
X158265715Y-87368095D01*
X158218096Y-87510952D01*
X157646667Y-88082381D01*
X158265715Y-88082381D01*
X150796667Y-99782381D02*
X150796667Y-100496667D01*
X150749047Y-100639524D01*
X150653809Y-100734762D01*
X150510952Y-100782381D01*
X150415714Y-100782381D01*
X151225238Y-99877619D02*
X151272857Y-99830000D01*
X151368095Y-99782381D01*
X151606191Y-99782381D01*
X151701429Y-99830000D01*
X151749048Y-99877619D01*
X151796667Y-99972857D01*
X151796667Y-100068095D01*
X151749048Y-100210952D01*
X151177619Y-100782381D01*
X151796667Y-100782381D01*
X150169524Y-103322381D02*
X149836190Y-102846190D01*
X149598095Y-103322381D02*
X149598095Y-102322381D01*
X149979048Y-102322381D01*
X150074286Y-102370000D01*
X150121905Y-102417619D01*
X150169524Y-102512857D01*
X150169524Y-102655714D01*
X150121905Y-102750952D01*
X150074286Y-102798571D01*
X149979048Y-102846190D01*
X149598095Y-102846190D01*
X147828096Y-107450000D02*
X147732858Y-107402381D01*
X147590001Y-107402381D01*
X147447143Y-107450000D01*
X147351905Y-107545238D01*
X147304286Y-107640476D01*
X147256667Y-107830952D01*
X147256667Y-107973810D01*
X147304286Y-108164286D01*
X147351905Y-108259524D01*
X147447143Y-108354762D01*
X147590001Y-108402381D01*
X147685239Y-108402381D01*
X147828096Y-108354762D01*
X147875715Y-108307143D01*
X147875715Y-107973810D01*
X147685239Y-107973810D01*
X148304286Y-108402381D02*
X148304286Y-107402381D01*
X148875715Y-108402381D01*
X148875715Y-107402381D01*
X149351905Y-108402381D02*
X149351905Y-107402381D01*
X149590000Y-107402381D01*
X149732858Y-107450000D01*
X149828096Y-107545238D01*
X149875715Y-107640476D01*
X149923334Y-107830952D01*
X149923334Y-107973810D01*
X149875715Y-108164286D01*
X149828096Y-108259524D01*
X149732858Y-108354762D01*
X149590000Y-108402381D01*
X149351905Y-108402381D01*
X145089524Y-108402381D02*
X144613333Y-108402381D01*
X144613333Y-107402381D01*
X145089524Y-103322381D02*
X144613333Y-103322381D01*
X144613333Y-102322381D01*
M02*
