G04 #@! TF.FileFunction,Copper,L1,Top,Signal*
%FSLAX46Y46*%
G04 Gerber Fmt 4.6, Leading zero omitted, Abs format (unit mm)*
G04 Created by KiCad (PCBNEW 4.0.7) date 10/02/18 19:48:28*
%MOMM*%
%LPD*%
G01*
G04 APERTURE LIST*
%ADD10C,0.100000*%
%ADD11C,1.524000*%
%ADD12C,0.600000*%
%ADD13C,0.250000*%
G04 APERTURE END LIST*
D10*
D11*
X166370000Y-85090000D03*
X166370000Y-87630000D03*
X166370000Y-82550000D03*
X166370000Y-80010000D03*
X176530000Y-87630000D03*
X176530000Y-82550000D03*
X176530000Y-102870000D03*
X176530000Y-97790000D03*
X148590000Y-82550000D03*
X148590000Y-85090000D03*
X148590000Y-87630000D03*
X161290000Y-82550000D03*
X153670000Y-82550000D03*
X161290000Y-85090000D03*
X153670000Y-85090000D03*
X146050000Y-107950000D03*
X151130000Y-102870000D03*
X151130000Y-107950000D03*
X146050000Y-102870000D03*
D12*
X148590000Y-97790000D03*
X148590000Y-92710000D03*
X171450000Y-95250000D03*
X166370000Y-95250000D03*
D13*
X166370000Y-85090000D02*
X168910000Y-85090000D01*
X168910000Y-97790000D02*
X176530000Y-97790000D01*
X168910000Y-85090000D02*
X168910000Y-97790000D01*
X161290000Y-85090000D02*
X166370000Y-85090000D01*
X148590000Y-87630000D02*
X148590000Y-92710000D01*
X148590000Y-107950000D02*
X151130000Y-107950000D01*
X148590000Y-97790000D02*
X148590000Y-107950000D01*
X158750000Y-87630000D02*
X158750000Y-80010000D01*
X158750000Y-80010000D02*
X166370000Y-80010000D01*
X166370000Y-87630000D02*
X158750000Y-87630000D01*
X158750000Y-87630000D02*
X148590000Y-87630000D01*
X166370000Y-82550000D02*
X176530000Y-82550000D01*
X161290000Y-82550000D02*
X166370000Y-82550000D01*
X146050000Y-107950000D02*
X146050000Y-102870000D01*
X176530000Y-90170000D02*
X176530000Y-87630000D01*
X171450000Y-95250000D02*
X176530000Y-90170000D01*
X146050000Y-95250000D02*
X166370000Y-95250000D01*
X146050000Y-97790000D02*
X146050000Y-95250000D01*
X146050000Y-102870000D02*
X146050000Y-97790000D01*
X176530000Y-102870000D02*
X151130000Y-102870000D01*
X148590000Y-82550000D02*
X153670000Y-82550000D01*
X148590000Y-85090000D02*
X153670000Y-85090000D01*
M02*
